<?xml version="1.0" encoding="UTF-8" standalone="no"?>
<svg width="180px" height="50px" viewBox="0 0 180 50" version="1.1" xmlns="http://www.w3.org/2000/svg" xmlns:xlink="http://www.w3.org/1999/xlink" xmlns:sketch="http://www.bohemiancoding.com/sketch/ns">
    <!-- Generator: Sketch 3.3.3 (12081) - http://www.bohemiancoding.com/sketch -->
    <title>Artboard 1</title>
    <desc>Created with Sketch.</desc>
    <defs></defs>
    <g id="Page-1" stroke="none" stroke-width="1" fill="none" fill-rule="evenodd" sketch:type="MSPage">
        <g id="Artboard-1" sketch:type="MSArtboardGroup">
            <circle id="Oval-1" fill="#C8DAEF" sketch:type="MSShapeGroup" cx="20.5" cy="24.5" r="12.5"></circle>
            <path d="M26.0830884,26.6666473 C25.8040868,25.7553087 25.1110828,23.809964 24.6424134,22.8482918 C25.1514163,22.6732907 26.1270887,22.376289 26.984427,22.3379555 C27.4610964,23.2159606 27.7207646,25.4849737 27.8104318,26.6666473 L26.0830884,26.6666473 L26.0830884,26.6666473 Z M25.264417,26.4309792 L24.8967482,26.7986481 C24.1024102,25.6543081 22.0410649,23.7382969 21.0183923,23.0559596 C20.8863915,22.9672924 20.7100572,22.9849592 20.5977232,23.0976265 C20.4870559,23.2082938 20.3827219,23.3126278 20.3513884,23.3266279 C20.3303883,23.3332946 20.2433878,23.3332946 20.1667207,23.3332946 C20.0553867,23.3332946 19.9490528,23.3926283 19.8870524,23.4849621 C19.582384,23.9399648 19.3193824,24.3333004 18.5000443,24.3333004 C18.444044,24.3333004 18.441044,24.3263003 18.4303773,24.2993002 C18.2980432,23.975965 18.6730453,22.9582924 19.0667143,22.5716235 C19.6343843,22.0149536 20.5520563,21.4582837 21.6973962,21.9712867 C22.7767359,22.4542895 23.6407409,22.8119582 23.9340759,22.9322922 C24.2817446,23.5546292 24.9317484,25.2889726 25.3007505,26.4069791 C25.2890838,26.4159792 25.2750837,26.4206459 25.264417,26.4309792 L25.264417,26.4309792 Z M24.5194127,28.0636554 C24.4867458,28.0916556 24.4394122,28.113989 24.3597451,28.0606554 C23.996743,27.7713204 22.0717318,26.0989773 22.052065,26.0819772 C21.9133975,25.9616432 21.7023963,25.9759766 21.5817289,26.1146441 C21.4610615,26.2539782 21.4757283,26.4643128 21.6147291,26.5853135 C21.6887295,26.6496472 23.2740721,28.0259885 23.8244086,28.4836579 C23.784075,28.624992 23.6477409,28.7109925 23.5800739,28.7446594 C23.3667393,28.8523267 23.143738,28.8339932 23.0607375,28.7559928 C23.0567375,28.7526594 23.0520708,28.7506594 23.0480708,28.7473261 C23.0457374,28.7446594 23.0444041,28.742326 23.0417374,28.7396593 C22.4320672,28.2526565 21.2210601,27.2623174 21.078726,27.1079832 C20.9540586,26.9719824 20.7430574,26.963649 20.6077232,27.0879831 C20.4723891,27.2129838 20.4633891,27.4236517 20.5880565,27.5593191 C20.7777242,27.7656537 21.9613978,28.7253259 22.4317339,29.1046615 C22.3834002,29.1536617 22.3200665,29.1886619 22.2610662,29.2116621 C21.9707312,29.3243294 21.5797289,29.2733291 21.3890611,29.0989948 C21.3867278,29.0969947 21.3840611,29.0956614 21.3820611,29.0943281 C21.3807277,29.0929947 21.3803944,29.0909947 21.3790611,29.090328 C21.0103923,28.7799929 20.5800564,28.3149902 20.2343877,27.941988 L20.0770535,27.7726537 C19.9513861,27.6379863 19.7407182,27.6309862 19.6060508,27.7566536 C19.4713833,27.8819877 19.4640499,28.0929889 19.5897173,28.227323 L19.7453849,28.395324 C20.0150531,28.6863257 20.3343883,29.0313277 20.6463901,29.3273294 C20.6060566,29.3306628 20.5600563,29.3333295 20.500056,29.3333295 C20.2770547,29.3333295 19.8783857,29.1843286 19.6830512,29.0546612 C19.4453832,28.8989936 17.9637079,27.7006533 16.6913671,26.6359804 C16.5056994,26.4796462 16.3020315,26.2876451 16.1226972,26.1183108 C16.0293633,26.0306436 15.9436961,25.9513098 15.8636957,25.8776427 C16.1970309,24.7596362 16.6490336,23.11896 16.7983678,21.9966201 C17.3060374,21.9966201 18.0180415,22.0319537 18.5493779,22.1489544 C18.0607084,22.6749574 17.5423721,23.8892978 17.8130403,24.5519683 C17.9297077,24.8366366 18.1800425,24.9999709 18.5000443,24.9999709 C19.5680505,24.9999709 20.0160531,24.4766346 20.3470551,23.9952984 C20.5693897,23.9802983 20.686057,23.9269647 20.8673914,23.7636304 C22.0700651,24.6413022 24.1470772,26.6749807 24.5330794,27.4779853 C24.6764136,27.7766537 24.6034131,27.9923217 24.5194127,28.0636554 L24.5194127,28.0636554 Z M14.9236902,26.6666473 L13.17368,26.6666473 C13.2320137,24.7569695 13.6236826,22.2712884 13.7713502,21.3879499 C14.3283534,21.4902839 15.46236,21.7089518 16.1386973,21.9029529 C15.9446961,23.3742948 15.1673583,25.8963095 14.9236902,26.6666473 L14.9236902,26.6666473 Z M27.437763,21.8059524 C27.3750959,21.7186185 27.2740953,21.6666182 27.1667614,21.6666182 C25.9840878,21.6666182 24.5920797,22.1509544 24.170744,22.3086219 C23.8687422,22.1849546 23.024404,21.8346192 21.9693978,21.3626164 C20.799391,20.8386134 19.8247187,21.1862821 19.1613815,21.634618 C18.3433767,21.3162828 16.8963683,21.3256162 16.5486996,21.3319496 C15.6703612,21.0416146 13.6453494,20.6869459 13.5573489,20.6719458 C13.3736812,20.6412789 13.2040135,20.7609463 13.1720133,20.940614 C13.1456799,21.0886149 12.5220096,24.5749685 12.5000094,26.9973159 C12.4993428,27.0859831 12.5340096,27.1719836 12.5966767,27.2349839 C12.6593437,27.2983176 12.7443442,27.3333178 12.8333447,27.3333178 L15.1666916,27.3333178 C15.3110258,27.3333178 15.4386932,27.240984 15.4833601,27.1036498 C15.4936935,27.0716496 15.5556939,26.8816485 15.6473611,26.5873135 C15.6536944,26.5929802 15.6590278,26.5976469 15.6650278,26.6036469 C15.8513623,26.7793146 16.0623635,26.9786491 16.2633647,27.1469834 C17.4673717,28.1549893 19.0293807,29.42333 19.3160491,29.6113311 C19.5600505,29.7726653 20.0887202,30 20.500056,30 C20.6690569,30 21.0023922,30 21.247727,29.7956655 C21.651396,29.9836666 22.1463989,29.9706665 22.5017343,29.8333324 C22.7220689,29.7479985 22.8954032,29.6173311 23.0100705,29.4536635 C23.2797388,29.5196639 23.5944073,29.482997 23.8790756,29.3403295 C24.1460772,29.2069954 24.3394116,29.0006609 24.4354122,28.7603261 C24.6304133,28.7513261 24.801081,28.6999924 24.9520818,28.5709917 C25.2124167,28.3483237 25.3760843,27.9199879 25.2224167,27.415985 L25.5237518,27.1146499 C25.5720854,27.243984 25.6930861,27.3333178 25.8334203,27.3333178 L28.1667672,27.3333178 C28.2584344,27.3333178 28.3461016,27.2956509 28.4094353,27.2293172 C28.4721023,27.1619835 28.5047692,27.072983 28.4994358,26.9809824 C28.4761023,26.5703134 28.246101,22.9329589 27.437763,21.8059524 L27.437763,21.8059524 Z" id="Fill-46" fill="#2179DF" sketch:type="MSShapeGroup"></path>
            <text id="OrderMe" sketch:type="MSTextLayer" font-family="PT Sans Caption" font-size="32" font-weight="bold" fill="#2179DF">
                <tspan x="39" y="35">OrderMe</tspan>
            </text>
        </g>
    </g>
</svg>